<svg width="20" height="15" viewBox="0 0 20 15" fill="none" xmlns="http://www.w3.org/2000/svg">
<path d="M7.95455 9.98471V4.05768L13.1818 7.02134L7.95455 9.98471ZM19.582 2.19272C19.352 1.32955 18.6743 0.649848 17.8139 0.419165C16.2542 -7.33659e-05 10 -7.35819e-05 10 -7.35819e-05C10 -7.35819e-05 3.74583 -7.33659e-05 2.18613 0.419165C1.32564 0.649848 0.647905 1.32955 0.417924 2.19272C0 3.75714 0 7.0212 0 7.0212C0 7.0212 0 10.2852 0.417924 11.8497C0.647905 12.7129 1.32564 13.3926 2.18613 13.6233C3.74583 14.0425 10 14.0425 10 14.0425C10 14.0425 16.2542 14.0425 17.8139 13.6233C18.6743 13.3926 19.352 12.7129 19.582 11.8497C20 10.2852 20 7.0212 20 7.0212C20 7.0212 20 3.75714 19.582 2.19272Z" fill="#404040"/>
</svg>
